<svg xmlns:xlink="http://www.w3.org/1999/xlink" width="720" xmlns="http://www.w3.org/2000/svg" height="720" id="screenshot-c3e62647-aa3c-803b-8003-3dc4b7ee42fa" viewBox="0 0 720 720" style="-webkit-print-color-adjust: exact;" fill="none" version="1.1"><g id="shape-c3e62647-aa3c-803b-8003-3dc4b7ee42fa"><defs><clipPath class="frame-clip-def frame-clip" id="frame-clip-c3e62647-aa3c-803b-8003-3dc4b7ee42fa-rumext-id-1"><rect rx="0" ry="0" x="0" y="0" width="720" height="720" transform="matrix(1.000000, 0.000000, 0.000000, 1.000000, 0.000000, 0.000000)"/></clipPath></defs><g clip-path="url(#frame-clip-c3e62647-aa3c-803b-8003-3dc4b7ee42fa-rumext-id-1)" fill="none"><clipPath class="frame-clip-def frame-clip" id="frame-clip-c3e62647-aa3c-803b-8003-3dc4b7ee42fa-rumext-id-1"><rect rx="0" ry="0" x="0" y="0" width="720" height="720" transform="matrix(1.000000, 0.000000, 0.000000, 1.000000, 0.000000, 0.000000)"/></clipPath><g class="fills" id="fills-c3e62647-aa3c-803b-8003-3dc4b7ee42fa"><rect rx="0" ry="0" x="0" y="0" transform="matrix(1.000000, 0.000000, 0.000000, 1.000000, 0.000000, 0.000000)" width="720" height="720" class="frame-background"/></g><g class="frame-children"><g id="shape-d9545428-fb6f-8041-8003-6f298f020225"><g class="fills" id="fills-d9545428-fb6f-8041-8003-6f298f020225"><rect rx="160" ry="160" x="20" y="20" transform="matrix(1.000000, 0.000000, 0.000000, 1.000000, 0.000000, 0.000000)" width="680" height="680" style="fill: rgb(34, 35, 36); fill-opacity: 1;"/></g><g id="strokes-d9545428-fb6f-8041-8003-6f298f020225" class="strokes"><g class="stroke-shape"><rect rx="160" ry="160" x="20" y="20" transform="matrix(1.000000, 0.000000, 0.000000, 1.000000, 0.000000, 0.000000)" width="680" height="680" style="fill: none; stroke-width: 32; stroke: rgb(83, 185, 58); stroke-opacity: 1;"/></g></g></g><g id="shape-d9545428-fb6f-8041-8003-6f28a1628dfa" width="24" class="lucide lucide-leaf" height="24" rx="0" ry="0" style="fill: rgb(0, 0, 0);"><g id="shape-d9545428-fb6f-8041-8003-6f28a163dc43"><g class="fills" id="fills-d9545428-fb6f-8041-8003-6f28a163dc43"><path fill="none" stroke-linecap="round" stroke-linejoin="round" rx="0" ry="0" d="M337.083,543.333C253.650,543.586,183.951,479.840,176.775,396.715C169.599,313.590,227.341,238.842,309.583,224.792C440.208,199.583,474.583,187.667,520.417,130.833C543.333,176.667,566.250,226.625,566.250,314.167C566.250,440.208,456.708,543.333,337.083,543.333ZL337.083,543.333Z" style="fill: rgb(83, 185, 58); fill-opacity: 0.4;"/></g><g id="strokes-d9545428-fb6f-8041-8003-6f28a163dc43" class="strokes"><g class="stroke-shape"><path stroke-linecap="round" stroke-linejoin="round" rx="0" ry="0" d="M337.083,543.333C253.650,543.586,183.951,479.840,176.775,396.715C169.599,313.590,227.341,238.842,309.583,224.792C440.208,199.583,474.583,187.667,520.417,130.833C543.333,176.667,566.250,226.625,566.250,314.167C566.250,440.208,456.708,543.333,337.083,543.333ZL337.083,543.333Z" style="fill: none; stroke-width: 38; stroke: rgb(83, 185, 58); stroke-opacity: 1;"/></g></g></g><g id="shape-d9545428-fb6f-8041-8003-6f28a16468cc"><g class="fills" id="fills-d9545428-fb6f-8041-8003-6f28a16468cc"><path fill="none" stroke-linecap="round" stroke-linejoin="round" rx="0" ry="0" d="M130.833,566.250C130.833,497.500,173.229,443.417,247.250,428.750C302.708,417.750,360.000,382.917,382.917,360.000" style="fill: none;"/></g><g id="strokes-d9545428-fb6f-8041-8003-6f28a16468cc" class="strokes"><g class="stroke-shape"><path stroke-linecap="round" stroke-linejoin="round" rx="0" ry="0" d="M130.833,566.250C130.833,497.500,173.229,443.417,247.250,428.750C302.708,417.750,360.000,382.917,382.917,360.000" style="fill: none; stroke-width: 38; stroke: rgb(83, 185, 58); stroke-opacity: 1;"/></g></g></g></g></g></g></g></svg>